# xmcd
#
# Track frame offsets: 
#        150
#        12992
#        24672
#        35822
#        47600
#        58467
#        70240
#        80222
#        90642
#        101325
#        112437
#        123532
#        135200
#        146712
#        157042
#        167792
#        180280
#        190635
#        201567
#        211897
#        222227
#
# Disc length: 3104 seconds
#
# Revision: 4
# Processed by: cddbd v1.5.2PL0 Copyright (c) Steve Scherf et al.
# Submitted via: ExactAudioCopyFreeDBPlugin 1.0
#
DISCID=3e0c1e15
DTITLE=Roberto Johnson - The Complete Recordings Disc 2
DYEAR=1990
DGENRE=Blues
TTITLE0=Preachin' Blues (Up Jumped The Devil)
TTITLE1=If I Had Possession Over Judgement Day
TTITLE2=Stones In My Passway
TTITLE3=I'm A Steady Rollin' Man
TTITLE4=From Four Until Late
TTITLE5=Hell Hound On My Trail
TTITLE6=Little Queen Of Spades (t.1)
TTITLE7=Little Queen Of Spades (t.2)
TTITLE8=Malted Milk
TTITLE9=Drunken Hearted Man (t.1)
TTITLE10=Drunken Hearted Man (t.2)
TTITLE11=Me And The Devil Blues (t.1)
TTITLE12=Me And The Devil Blues (t.2)
TTITLE13=Stop Breakin' Down BLues (t.1)
TTITLE14=Stop Breakin' Down BLues (t.2)
TTITLE15=Traveling Riverside Blues
TTITLE16=Honeymoon Blues
TTITLE17=Love In Vain Blues (t.1)
TTITLE18=Love In Vain Blues (t.2)
TTITLE19=Mikcow's Calf BLues (t.1)
TTITLE20=Mikcow's Calf BLues (t.2)
EXTD=YEAR: 1990
EXTT0=
EXTT1=
EXTT2=
EXTT3=
EXTT4=
EXTT5=
EXTT6=
EXTT7=
EXTT8=
EXTT9=
EXTT10=
EXTT11=
EXTT12=
EXTT13=
EXTT14=
EXTT15=
EXTT16=
EXTT17=
EXTT18=
EXTT19=
EXTT20=
PLAYORDER=
